<svg xmlns="http://www.w3.org/2000/svg"  viewBox="0 0 36 36" width="144px" height="144px"><path fill="#EFEFEF" d="M4.167,27.623c0-6.917-3.583-11.667-3.583-15S2.5,2.29,17.833,2.29s17.583,9.417,17.583,13.083 C35.417,32.54,4.167,39.873,4.167,27.623z"/><rect width="2" height="1" x="30.856" y="2.82" fill="#A4AFC1" transform="rotate(-45.001 31.856 3.32)"/><rect width="1" height="2" x="27.467" y="1.967" fill="#A4AFC1" transform="rotate(-45.009 27.968 2.967)"/><rect width="1" height="2" x="31.533" y="6.033" fill="#A4AFC1" transform="rotate(-45.009 32.034 7.033)"/><path fill="#F3F3F1" d="M28.25,10.75c0.552,0,1,0.448,1,1v11H6.75v-11c0-0.552,0.448-1,1-1H28.25z"/><path fill="#2FDF84" d="M6.75,22.75h22.5v2.5c0,0.552-0.448,1-1,1H7.75c-0.552,0-1-0.448-1-1V22.75z"/><path fill="#2FDF84" d="M19.75,26.25c0,0,0.245,1.765,1.48,3h0.02h-6.5c1.25-1.25,1.48-3,1.48-3H19.75z"/><circle cx="14" cy="17" r="3.25" fill="#2FDF84"/><path fill="#00B871" d="M9,25.25v-2.5H6.75v2.5c0,0.552,0.448,1,1,1H10C9.448,26.25,9,25.802,9,25.25z"/><path fill="#00B871" d="M16.23,26.25c0,0-0.23,1.75-1.48,3H17c1.25-1.25,1.48-3,1.48-3H16.23z"/><path fill="#00B871" d="M13,17c0-1.398,0.887-2.579,2.125-3.038c-0.352-0.13-0.728-0.212-1.125-0.212 c-1.795,0-3.25,1.455-3.25,3.25s1.455,3.25,3.25,3.25c0.397,0,0.773-0.082,1.125-0.212C13.887,19.579,13,18.398,13,17z"/><path fill="#D5DBE1" d="M10,10.75H7.75c-0.552,0-1,0.448-1,1v11H9v-11C9,11.198,9.448,10.75,10,10.75z"/><path d="M14,21c-2.206,0-4-1.794-4-4s1.794-4,4-4s4,1.794,4,4S16.206,21,14,21z M14,14.5c-1.378,0-2.5,1.121-2.5,2.5 s1.122,2.5,2.5,2.5s2.5-1.121,2.5-2.5S15.378,14.5,14,14.5z"/><path d="M12.305,19.755l-1.061-1.061l2.005-2.005V14h1.5v3c0,0.199-0.079,0.39-0.22,0.53L12.305,19.755z"/><rect width="6" height="1.5" x="20" y="14"/><rect width="6" height="1.5" x="20" y="18.5"/><path d="M28.25,27H7.75C6.785,27,6,26.215,6,25.25v-13.5C6,10.785,6.785,10,7.75,10h20.5c0.965,0,1.75,0.785,1.75,1.75v13.5 C30,26.215,29.215,27,28.25,27z M7.75,11.5c-0.138,0-0.25,0.112-0.25,0.25v13.5c0,0.138,0.112,0.25,0.25,0.25h20.5 c0.138,0,0.25-0.112,0.25-0.25v-13.5c0-0.138-0.112-0.25-0.25-0.25H7.75z"/><rect width="32" height="1.5" x="2" y="28.5"/><rect width="22.5" height="1.5" x="6.75" y="22"/><path d="M21.25,30h-6.5c-0.303,0-0.577-0.183-0.693-0.463s-0.052-0.603,0.163-0.817c1.041-1.041,1.265-2.553,1.267-2.567 l1.487,0.195c-0.008,0.059-0.147,1.066-0.744,2.152h3.523c-0.591-1.08-0.738-2.088-0.746-2.147l1.485-0.208 c0.002,0.015,0.221,1.458,1.184,2.488C21.872,28.769,22,28.994,22,29.25C22,29.664,21.664,30,21.25,30z"/></svg>